<mxfile host="app.diagrams.net" agent="Mozilla/5.0 (Windows NT 10.0; Win64; x64) AppleWebKit/537.36 (KHTML, like Gecko) Chrome/126.0.0.0 Safari/537.36" version="24.7.5">
  <diagram name="Page-1" id="C5OX-EKHrd3WyH3kmnUe">
    <mxGraphModel dx="1674" dy="738" grid="1" gridSize="10" guides="1" tooltips="1" connect="1" arrows="1" fold="1" page="1" pageScale="1" pageWidth="850" pageHeight="1100" math="0" shadow="0">
      <root>
        <mxCell id="0" />
        <mxCell id="1" parent="0" />
        <mxCell id="b-qk2ZxCCpkq9FJ71Gv3-1" value="Salesforce CDC limitations:&amp;nbsp;&amp;nbsp;&lt;br&gt;1.&amp;nbsp; &amp;nbsp; &amp;nbsp;objects????&amp;nbsp;&lt;br&gt;2.&amp;nbsp; &amp;nbsp;all fields???" style="rounded=1;whiteSpace=wrap;html=1;" vertex="1" parent="1">
          <mxGeometry x="80" y="80" width="310" height="170" as="geometry" />
        </mxCell>
      </root>
    </mxGraphModel>
  </diagram>
</mxfile>
